<svg width="215" height="24" viewBox="0 0 215 24" fill="none" xmlns="http://www.w3.org/2000/svg">
<path d="M5.52 2.736L9.072 2.256L7.368 10.272C8.136 10.208 8.84 9.872 9.48 9.264C10.136 8.656 10.648 7.904 11.016 7.008C11.384 6.112 11.568 5.232 11.568 4.368C11.568 3.408 11.32 2.624 10.824 2.016C10.328 1.408 9.584 1.104 8.592 1.104C6.64 1.104 5.112 1.616 4.008 2.64C2.92 3.664 2.376 5.096 2.376 6.936C2.376 7.528 2.432 7.944 2.544 8.184C2.656 8.408 2.712 8.536 2.712 8.568C1.848 8.568 1.2 8.392 0.768 8.04C0.352 7.672 0.144 7.072 0.144 6.24C0.144 5.216 0.56 4.224 1.392 3.264C2.24 2.288 3.32 1.504 4.632 0.912C5.944 0.303999 7.256 -1.43051e-06 8.568 -1.43051e-06C9.832 -1.43051e-06 10.888 0.215999 11.736 0.647999C12.584 1.08 13.208 1.656 13.608 2.376C14.024 3.08 14.232 3.864 14.232 4.728C14.232 5.768 13.944 6.784 13.368 7.776C12.808 8.768 12 9.584 10.944 10.224C9.888 10.848 8.672 11.16 7.296 11.16H7.176L5.712 18H2.256L5.52 2.736ZM17.1898 18.144C16.0058 18.144 15.0858 17.84 14.4298 17.232C13.7738 16.608 13.4458 15.64 13.4458 14.328C13.4458 13.224 13.6618 12.008 14.0938 10.68C14.5258 9.352 15.2298 8.208 16.2058 7.248C17.1818 6.272 18.4218 5.784 19.9258 5.784C21.6858 5.784 22.5658 6.552 22.5658 8.088C22.5658 8.984 22.3098 9.808 21.7978 10.56C21.2858 11.312 20.6058 11.92 19.7578 12.384C18.9098 12.832 18.0058 13.088 17.0458 13.152C17.0138 13.632 16.9978 13.952 16.9978 14.112C16.9978 14.896 17.1338 15.432 17.4058 15.72C17.6778 15.992 18.1178 16.128 18.7258 16.128C19.5898 16.128 20.3258 15.928 20.9338 15.528C21.5578 15.128 22.2378 14.52 22.9738 13.704H23.7898C22.0138 16.664 19.8138 18.144 17.1898 18.144ZM17.2378 12C17.8298 11.968 18.3898 11.76 18.9178 11.376C19.4618 10.992 19.8938 10.504 20.2138 9.912C20.5498 9.32 20.7178 8.696 20.7178 8.04C20.7178 7.384 20.5178 7.056 20.1178 7.056C19.5418 7.056 18.9738 7.56 18.4138 8.568C17.8698 9.576 17.4778 10.72 17.2378 12ZM24.9848 23.664C25.1928 22.512 25.4408 21.624 25.7288 21C26.0328 20.376 26.4168 19.936 26.8808 19.68C27.3448 19.424 27.9528 19.296 28.7048 19.296H30.5768C31.1528 19.296 31.5768 19.264 31.8488 19.2C32.1368 19.136 32.3928 18.952 32.6168 18.648C32.8408 18.344 33.0248 17.848 33.1688 17.16C32.7528 17.576 32.4008 17.848 32.1128 17.976C31.8248 18.088 31.4648 18.144 31.0328 18.144C30.4568 18.144 29.9768 17.952 29.5928 17.568C29.2088 17.168 28.9768 16.6 28.8968 15.864C28.3528 16.744 27.7768 17.344 27.1688 17.664C26.5768 17.984 25.9688 18.144 25.3448 18.144C24.5768 18.144 23.9528 17.904 23.4728 17.424C23.0088 16.944 22.7767 16.224 22.7767 15.264C22.7767 14.864 22.8407 14.344 22.9688 13.704L24.6008 6H28.0568L26.3288 14.16C26.2808 14.4 26.2568 14.624 26.2568 14.832C26.2568 15.488 26.4968 15.816 26.9768 15.816C27.4248 15.816 27.8088 15.632 28.1288 15.264C28.4488 14.88 28.7048 14.36 28.8968 13.704L30.5288 6H33.9848L32.2568 14.16C32.1928 14.4 32.1608 14.656 32.1608 14.928C32.1608 15.248 32.2328 15.48 32.3768 15.624C32.5368 15.752 32.7928 15.816 33.1448 15.816H34.3688C34.1928 17.736 33.8488 19.184 33.3368 20.16C32.8248 21.152 32.2728 21.792 31.6808 22.08C31.0888 22.368 30.4568 22.512 29.7848 22.512H28.1288C27.4568 22.512 26.9528 22.536 26.6168 22.584C26.2808 22.632 26.0248 22.736 25.8488 22.896C25.6728 23.056 25.5448 23.312 25.4648 23.664H24.9848ZM39.2445 18.144C38.0605 18.144 37.1405 17.84 36.4845 17.232C35.8285 16.608 35.5005 15.64 35.5005 14.328C35.5005 13.224 35.7165 12.008 36.1485 10.68C36.5805 9.352 37.2845 8.208 38.2605 7.248C39.2365 6.272 40.4765 5.784 41.9805 5.784C43.7405 5.784 44.6205 6.552 44.6205 8.088C44.6205 8.984 44.3645 9.808 43.8525 10.56C43.3405 11.312 42.6605 11.92 41.8125 12.384C40.9645 12.832 40.0605 13.088 39.1005 13.152C39.0685 13.632 39.0525 13.952 39.0525 14.112C39.0525 14.896 39.1885 15.432 39.4605 15.72C39.7325 15.992 40.1725 16.128 40.7805 16.128C41.6445 16.128 42.3805 15.928 42.9885 15.528C43.6125 15.128 44.2925 14.52 45.0285 13.704H45.8445C44.0685 16.664 41.8685 18.144 39.2445 18.144ZM39.2925 12C39.8845 11.968 40.4445 11.76 40.9725 11.376C41.5165 10.992 41.9485 10.504 42.2685 9.912C42.6045 9.32 42.7725 8.696 42.7725 8.04C42.7725 7.384 42.5725 7.056 42.1725 7.056C41.5965 7.056 41.0285 7.56 40.4685 8.568C39.9245 9.576 39.5325 10.72 39.2925 12ZM53.6874 18.144C52.7114 18.144 51.9914 17.888 51.5274 17.376C51.0794 16.848 50.8554 16.2 50.8554 15.432C50.8554 15.096 50.8954 14.72 50.9754 14.304C51.0554 13.872 51.1354 13.456 51.2154 13.056C51.3114 12.656 51.3754 12.4 51.4074 12.288C51.5354 11.728 51.6554 11.176 51.7674 10.632C51.8794 10.088 51.9354 9.648 51.9354 9.312C51.9354 8.496 51.6474 8.088 51.0714 8.088C50.6554 8.088 50.2874 8.296 49.9674 8.712C49.6474 9.112 49.3914 9.64 49.1994 10.296L47.5674 18H44.1114L46.6554 6H50.1114L49.8474 7.248C50.6474 6.352 51.5834 5.904 52.6554 5.904C53.4714 5.904 54.1194 6.128 54.5994 6.576C55.0794 7.024 55.3194 7.704 55.3194 8.616C55.3194 9.08 55.2634 9.6 55.1514 10.176C55.0394 10.736 54.8794 11.424 54.6714 12.24C54.5434 12.736 54.4234 13.224 54.3114 13.704C54.2154 14.168 54.1674 14.536 54.1674 14.808C54.1674 15.128 54.2394 15.376 54.3834 15.552C54.5274 15.728 54.7754 15.816 55.1274 15.816C55.6074 15.816 55.9914 15.648 56.2794 15.312C56.5674 14.96 56.8554 14.424 57.1434 13.704H58.1514C57.5594 15.464 56.8714 16.648 56.0874 17.256C55.3194 17.848 54.5194 18.144 53.6874 18.144ZM71.7326 18.144C70.7566 18.144 70.0366 17.888 69.5726 17.376C69.1246 16.848 68.9006 16.2 68.9006 15.432C68.9006 15.096 68.9406 14.72 69.0206 14.304C69.1006 13.872 69.1806 13.456 69.2606 13.056C69.3566 12.656 69.4206 12.4 69.4526 12.288C69.5806 11.728 69.7006 11.176 69.8126 10.632C69.9246 10.088 69.9806 9.648 69.9806 9.312C69.9806 8.496 69.6926 8.088 69.1166 8.088C68.7006 8.088 68.3326 8.296 68.0126 8.712C67.6926 9.112 67.4366 9.64 67.2446 10.296L65.6126 18H62.1566L63.9086 9.72C63.9566 9.528 63.9806 9.328 63.9806 9.12C63.9806 8.416 63.7406 8.064 63.2606 8.064C62.8126 8.064 62.4206 8.272 62.0846 8.688C61.7646 9.088 61.5086 9.624 61.3166 10.296L59.6846 18H56.2286L58.7726 6H62.2286L61.9646 7.248C62.7806 6.336 63.7566 5.88 64.8926 5.88C66.3006 5.88 67.1246 6.568 67.3646 7.944C68.2446 6.584 69.3566 5.904 70.7006 5.904C71.5166 5.904 72.1646 6.128 72.6446 6.576C73.1246 7.024 73.3646 7.704 73.3646 8.616C73.3646 9.08 73.3086 9.6 73.1966 10.176C73.0846 10.736 72.9246 11.424 72.7166 12.24C72.5886 12.736 72.4686 13.224 72.3566 13.704C72.2606 14.168 72.2126 14.536 72.2126 14.808C72.2126 15.128 72.2846 15.376 72.4286 15.552C72.5726 15.728 72.8206 15.816 73.1726 15.816C73.6526 15.816 74.0366 15.648 74.3246 15.312C74.6126 14.96 74.9006 14.424 75.1886 13.704H76.1966C75.6046 15.464 74.9166 16.648 74.1326 17.256C73.3646 17.848 72.5646 18.144 71.7326 18.144ZM78.4755 18.144C77.3875 18.144 76.5395 17.872 75.9315 17.328C75.3395 16.784 75.0435 16.032 75.0435 15.072C75.0435 14.752 75.0995 14.296 75.2115 13.704L76.7955 6H80.1075L78.3315 14.448C78.2835 14.576 78.2595 14.8 78.2595 15.12C78.2595 15.776 78.6195 16.104 79.3395 16.104C79.7715 16.104 80.1875 15.928 80.5875 15.576C80.9875 15.208 81.3075 14.72 81.5475 14.112C81.7875 13.504 81.9075 12.84 81.9075 12.12C81.9075 11.72 81.7875 11.416 81.5475 11.208C81.3395 11.352 81.1075 11.424 80.8515 11.424C80.5795 11.424 80.3315 11.336 80.1075 11.16C79.8995 10.984 79.7955 10.728 79.7955 10.392C79.7955 10.04 79.9315 9.768 80.2035 9.576C80.4755 9.384 80.7875 9.288 81.1395 9.288C81.5075 9.288 81.8355 9.336 82.1235 9.432C83.1475 8.968 84.3715 8.304 85.7955 7.44C86.9475 6.752 87.7795 6.272 88.2915 6H89.7795L88.0275 14.16C87.9635 14.4 87.9315 14.656 87.9315 14.928C87.9315 15.248 88.0035 15.48 88.1475 15.624C88.3075 15.752 88.5635 15.816 88.9155 15.816C89.2035 15.816 89.4595 15.768 89.6835 15.672C89.6195 16.472 89.3315 17.088 88.8195 17.52C88.3235 17.936 87.7315 18.144 87.0435 18.144C86.3395 18.144 85.7715 17.904 85.3395 17.424C84.9235 16.944 84.7155 16.224 84.7155 15.264C84.7155 14.864 84.7795 14.344 84.9075 13.704L85.9635 8.76C85.2115 9.24 84.3155 9.76 83.2755 10.32C83.6595 10.912 83.8515 11.712 83.8515 12.72C83.8515 13.472 83.6515 14.272 83.2515 15.12C82.8515 15.952 82.2435 16.664 81.4275 17.256C80.6275 17.848 79.6435 18.144 78.4755 18.144ZM97.2242 18.648C96.4722 18.648 95.8082 18.408 95.2322 17.928C94.6722 17.432 94.3922 16.808 94.3922 16.056C94.3922 15.128 94.6962 14.376 95.3042 13.8C95.9122 13.224 96.6482 12.936 97.5122 12.936C97.8162 12.936 98.1122 13 98.4002 13.128L98.4962 12.648L100.656 2.736L104.208 2.256L101.592 14.568C101.496 15 101.392 15.376 101.28 15.696C101.68 16.032 102.152 16.2 102.696 16.2C103.608 16.2 104.408 15.672 105.096 14.616C105.8 13.56 106.344 12.216 106.728 10.584C107.112 8.952 107.304 7.304 107.304 5.64C107.304 4.072 106.992 2.928 106.368 2.208C105.76 1.472 104.904 1.104 103.8 1.104C102.6 1.104 101.52 1.344 100.56 1.824C99.6162 2.288 98.8722 2.96 98.3282 3.84C97.7842 4.72 97.5122 5.752 97.5122 6.936C97.5122 7.528 97.5682 7.944 97.6802 8.184C97.7922 8.408 97.8482 8.536 97.8482 8.568C97.0162 8.568 96.3762 8.392 95.9282 8.04C95.4962 7.688 95.2802 7.12 95.2802 6.336C95.2802 5.248 95.6882 4.216 96.5042 3.24C97.3202 2.264 98.4082 1.48 99.7682 0.887999C101.144 0.295999 102.624 -1.43051e-06 104.208 -1.43051e-06C106.4 -1.43051e-06 108.016 0.647999 109.056 1.944C110.096 3.24 110.616 4.896 110.616 6.912C110.616 8.736 110.304 10.536 109.68 12.312C109.072 14.072 108.256 15.512 107.232 16.632C106.208 17.752 105.12 18.312 103.968 18.312C102.736 18.312 101.656 17.808 100.728 16.8C100.28 17.472 99.7522 17.944 99.1442 18.216C98.5362 18.504 97.8962 18.648 97.2242 18.648ZM96.6722 16.512C96.9602 16.512 97.2322 16.368 97.4882 16.08C97.7602 15.776 97.9602 15.296 98.0882 14.64L98.2082 14.04C97.9522 13.88 97.7122 13.8 97.4882 13.8C97.0402 13.8 96.6322 13.992 96.2642 14.376C95.8962 14.744 95.7122 15.192 95.7122 15.72C95.7122 15.96 95.8002 16.152 95.9762 16.296C96.1682 16.44 96.4002 16.512 96.6722 16.512ZM113.015 18.144C112.023 18.144 111.303 17.904 110.855 17.424C110.391 16.928 110.159 16.32 110.159 15.6C110.159 14.96 110.295 14.464 110.567 14.112C110.839 13.76 111.175 13.584 111.575 13.584C111.927 13.584 112.215 13.696 112.439 13.92C112.231 14.48 112.127 15.008 112.127 15.504C112.127 15.968 112.215 16.312 112.391 16.536C112.567 16.76 112.767 16.872 112.991 16.872C113.423 16.872 113.839 16.512 114.239 15.792C114.639 15.072 114.967 14.176 115.223 13.104C115.479 12.032 115.607 11.024 115.607 10.08C115.607 8.4 115.119 7.56 114.143 7.56C113.695 7.56 113.335 7.704 113.063 7.992C112.791 8.28 112.535 8.736 112.295 9.36H111.047C111.399 8.192 111.879 7.304 112.487 6.696C113.111 6.088 113.959 5.784 115.031 5.784C116.119 5.784 116.975 6.128 117.599 6.816C118.223 7.504 118.535 8.432 118.535 9.6C118.535 9.984 118.511 10.384 118.463 10.8H119.903L120.911 6H124.127L123.119 10.8H124.463C124.895 9.344 125.519 8.144 126.335 7.2C127.151 6.256 128.167 5.784 129.383 5.784C130.279 5.784 130.911 6 131.279 6.432C131.663 6.848 131.855 7.368 131.855 7.992C131.855 8.552 131.735 8.984 131.495 9.288C131.271 9.592 130.983 9.744 130.631 9.744C130.343 9.744 130.063 9.648 129.791 9.456C129.951 8.928 130.031 8.456 130.031 8.04C130.031 7.736 129.983 7.496 129.887 7.32C129.791 7.144 129.655 7.056 129.479 7.056C129.079 7.056 128.671 7.424 128.255 8.16C127.855 8.88 127.527 9.776 127.271 10.848C127.015 11.904 126.887 12.904 126.887 13.848C126.887 14.696 127.047 15.328 127.367 15.744C127.687 16.16 128.119 16.368 128.663 16.368C129.271 16.368 129.919 16.144 130.607 15.696C131.295 15.232 131.895 14.568 132.407 13.704H133.223C132.679 14.904 131.879 15.944 130.823 16.824C129.767 17.704 128.647 18.144 127.463 18.144C126.375 18.144 125.519 17.8 124.895 17.112C124.271 16.424 123.959 15.496 123.959 14.328C123.959 13.496 124.023 12.8 124.151 12.24H122.783L121.583 18H118.367L119.591 12.24H118.247C117.911 13.872 117.303 15.264 116.423 16.416C115.543 17.568 114.407 18.144 113.015 18.144ZM135.715 18.096C134.531 18.096 133.595 17.792 132.907 17.184C132.219 16.576 131.875 15.616 131.875 14.304C131.875 13.216 132.099 12.008 132.547 10.68C132.995 9.352 133.715 8.208 134.707 7.248C135.699 6.272 136.947 5.784 138.451 5.784C140.499 5.784 141.523 7.064 141.523 9.624V9.648C141.571 9.664 141.659 9.672 141.787 9.672C142.315 9.672 142.923 9.536 143.611 9.264C144.299 8.976 144.923 8.632 145.483 8.232L145.699 8.88C145.235 9.376 144.627 9.8 143.875 10.152C143.139 10.488 142.331 10.728 141.451 10.872C141.323 12.328 140.995 13.6 140.467 14.688C139.939 15.776 139.259 16.616 138.427 17.208C137.595 17.8 136.691 18.096 135.715 18.096ZM136.675 15.936C137.059 15.936 137.443 15.72 137.827 15.288C138.211 14.84 138.547 14.24 138.835 13.488C139.123 12.72 139.331 11.872 139.459 10.944C139.027 10.848 138.811 10.512 138.811 9.936C138.811 9.28 139.059 8.848 139.555 8.64C139.523 8.112 139.443 7.752 139.315 7.56C139.187 7.352 138.963 7.248 138.643 7.248C138.115 7.248 137.603 7.632 137.107 8.4C136.611 9.168 136.211 10.088 135.907 11.16C135.603 12.232 135.451 13.176 135.451 13.992C135.451 14.76 135.539 15.28 135.715 15.552C135.891 15.808 136.211 15.936 136.675 15.936ZM144.582 5.112H148.038L147.654 6.912C148.454 6.224 149.39 5.88 150.462 5.88C151.358 5.88 152.07 6.176 152.598 6.768C153.126 7.36 153.39 8.328 153.39 9.672C153.39 10.936 153.206 12.216 152.838 13.512C152.47 14.792 151.846 15.888 150.966 16.8C150.086 17.696 148.926 18.144 147.486 18.144C146.462 18.144 145.782 17.856 145.446 17.28L144.198 23.136L140.574 24L144.582 5.112ZM146.742 16.056C147.51 16.056 148.142 15.696 148.638 14.976C149.15 14.256 149.518 13.4 149.742 12.408C149.982 11.4 150.102 10.464 150.102 9.6C150.102 8.272 149.702 7.608 148.902 7.608C148.614 7.608 148.318 7.712 148.014 7.92C147.726 8.128 147.47 8.416 147.246 8.784L145.83 15.504C145.958 15.872 146.262 16.056 146.742 16.056ZM158.232 24C157.464 24 156.824 23.8 156.312 23.4C155.8 23 155.544 22.424 155.544 21.672C155.544 20.76 155.912 20.024 156.648 19.464C157.384 18.92 158.32 18.464 159.456 18.096L159.744 16.824C158.928 17.704 157.968 18.144 156.864 18.144C155.952 18.144 155.192 17.832 154.584 17.208C153.976 16.584 153.672 15.608 153.672 14.28C153.672 13.096 153.904 11.856 154.368 10.56C154.848 9.248 155.552 8.144 156.48 7.248C157.424 6.336 158.544 5.88 159.84 5.88C160.496 5.88 160.984 5.992 161.304 6.216C161.624 6.44 161.784 6.736 161.784 7.104V7.248L162.048 6H165.504L163.128 17.136C163.896 16.88 164.512 16.496 164.976 15.984C165.44 15.472 165.832 14.712 166.152 13.704H167.16C166.728 15.128 166.144 16.176 165.408 16.848C164.672 17.504 163.84 17.952 162.912 18.192L162.552 19.92C162.232 21.472 161.68 22.536 160.896 23.112C160.112 23.704 159.224 24 158.232 24ZM158.424 15.816C158.792 15.816 159.168 15.648 159.552 15.312C159.936 14.976 160.2 14.52 160.344 13.944L161.568 8.256C161.568 8.064 161.488 7.872 161.328 7.68C161.168 7.472 160.92 7.368 160.584 7.368C159.944 7.368 159.368 7.744 158.856 8.496C158.344 9.232 157.944 10.128 157.656 11.184C157.368 12.224 157.224 13.144 157.224 13.944C157.224 14.744 157.336 15.256 157.56 15.48C157.8 15.704 158.088 15.816 158.424 15.816ZM157.68 22.128C157.952 22.128 158.216 21.944 158.472 21.576C158.728 21.208 158.928 20.68 159.072 19.992L159.216 19.296C157.648 19.872 156.864 20.552 156.864 21.336C156.864 21.544 156.936 21.728 157.08 21.888C157.224 22.048 157.424 22.128 157.68 22.128ZM168.116 18.144C167.124 18.144 166.404 17.904 165.956 17.424C165.492 16.928 165.26 16.32 165.26 15.6C165.26 14.96 165.396 14.464 165.668 14.112C165.94 13.76 166.276 13.584 166.676 13.584C167.028 13.584 167.316 13.696 167.54 13.92C167.332 14.48 167.228 15.008 167.228 15.504C167.228 15.968 167.316 16.312 167.492 16.536C167.668 16.76 167.868 16.872 168.092 16.872C168.524 16.872 168.94 16.512 169.34 15.792C169.74 15.072 170.068 14.176 170.324 13.104C170.58 12.032 170.708 11.024 170.708 10.08C170.708 8.4 170.22 7.56 169.244 7.56C168.796 7.56 168.436 7.704 168.164 7.992C167.892 8.28 167.636 8.736 167.396 9.36H166.148C166.5 8.192 166.98 7.304 167.588 6.696C168.212 6.088 169.06 5.784 170.132 5.784C171.22 5.784 172.076 6.128 172.7 6.816C173.324 7.504 173.636 8.432 173.636 9.6C173.636 9.984 173.612 10.384 173.564 10.8H175.004L176.012 6H179.228L178.22 10.8H179.564C179.996 9.344 180.62 8.144 181.436 7.2C182.252 6.256 183.268 5.784 184.484 5.784C185.38 5.784 186.012 6 186.38 6.432C186.764 6.848 186.956 7.368 186.956 7.992C186.956 8.552 186.836 8.984 186.596 9.288C186.372 9.592 186.084 9.744 185.732 9.744C185.444 9.744 185.164 9.648 184.892 9.456C185.052 8.928 185.132 8.456 185.132 8.04C185.132 7.736 185.084 7.496 184.988 7.32C184.892 7.144 184.756 7.056 184.58 7.056C184.18 7.056 183.772 7.424 183.356 8.16C182.956 8.88 182.628 9.776 182.372 10.848C182.116 11.904 181.988 12.904 181.988 13.848C181.988 14.696 182.148 15.328 182.468 15.744C182.788 16.16 183.22 16.368 183.764 16.368C184.372 16.368 185.02 16.144 185.708 15.696C186.396 15.232 186.996 14.568 187.508 13.704H188.324C187.78 14.904 186.98 15.944 185.924 16.824C184.868 17.704 183.748 18.144 182.564 18.144C181.476 18.144 180.62 17.8 179.996 17.112C179.372 16.424 179.06 15.496 179.06 14.328C179.06 13.496 179.124 12.8 179.252 12.24H177.884L176.684 18H173.468L174.692 12.24H173.348C173.012 13.872 172.404 15.264 171.524 16.416C170.644 17.568 169.508 18.144 168.116 18.144ZM189.689 18.144C188.921 18.144 188.297 17.904 187.817 17.424C187.353 16.944 187.12 16.224 187.12 15.264C187.12 14.864 187.184 14.344 187.312 13.704L188.945 6H192.401L190.673 14.16C190.625 14.4 190.601 14.624 190.601 14.832C190.601 15.488 190.841 15.816 191.321 15.816C191.769 15.816 192.153 15.632 192.473 15.264C192.793 14.88 193.049 14.36 193.241 13.704L194.873 6H198.329L196.601 14.16C196.537 14.4 196.505 14.656 196.505 14.928C196.505 15.248 196.577 15.48 196.721 15.624C196.881 15.752 197.137 15.816 197.489 15.816C197.937 15.816 198.321 15.624 198.641 15.24C198.977 14.856 199.241 14.344 199.432 13.704H200.441C199.849 15.432 199.113 16.608 198.233 17.232C197.369 17.84 196.497 18.144 195.617 18.144C194.929 18.144 194.377 17.952 193.961 17.568C193.561 17.184 193.321 16.616 193.241 15.864C192.697 16.744 192.121 17.344 191.513 17.664C190.921 17.984 190.313 18.144 189.689 18.144ZM202.934 18.096C201.75 18.096 200.814 17.792 200.126 17.184C199.438 16.576 199.094 15.616 199.094 14.304C199.094 13.216 199.318 12.008 199.766 10.68C200.214 9.352 200.934 8.208 201.926 7.248C202.918 6.272 204.166 5.784 205.67 5.784C207.718 5.784 208.742 7.072 208.742 9.648C208.742 11.248 208.494 12.696 207.998 13.992C207.502 15.272 206.806 16.28 205.91 17.016C205.03 17.736 204.038 18.096 202.934 18.096ZM203.894 15.936C204.438 15.936 204.926 15.568 205.358 14.832C205.806 14.08 206.15 13.152 206.39 12.048C206.646 10.928 206.774 9.872 206.774 8.88C206.774 8.32 206.71 7.912 206.582 7.656C206.454 7.384 206.214 7.248 205.862 7.248C205.334 7.248 204.822 7.632 204.326 8.4C203.83 9.168 203.43 10.088 203.126 11.16C202.822 12.232 202.67 13.176 202.67 13.992C202.67 14.76 202.758 15.28 202.934 15.552C203.11 15.808 203.43 15.936 203.894 15.936Z" fill="black"/>
<path d="M212.617 18.096C212.089 18.096 211.641 17.912 211.273 17.544C210.905 17.176 210.721 16.728 210.721 16.2C210.721 15.672 210.905 15.224 211.273 14.856C211.641 14.472 212.089 14.28 212.617 14.28C213.145 14.28 213.593 14.472 213.961 14.856C214.345 15.224 214.537 15.672 214.537 16.2C214.537 16.728 214.345 17.176 213.961 17.544C213.593 17.912 213.145 18.096 212.617 18.096Z" fill="#FF7426"/>
</svg>
